M48
;DRILL file {KiCad 4.0.7} date 02/17/19 14:56:28
;FORMAT={-:-/ absolute / metric / decimal}
FMAT,2
METRIC,TZ
T1C0.600
T2C0.800
T3C1.000
T4C1.100
T5C1.143
%
G90
G05
M71
T1
X6.604Y-12.192
X6.604Y-9.144
X12.7Y-5.08
X12.7Y-1.27
X21.59Y-7.874
X25.4Y-7.874
X28.194Y-36.576
X31.496Y-32.512
X31.496Y-11.938
X31.496Y-8.382
X33.274Y-32.512
X37.592Y-41.91
T2
X11.43Y-34.29
X11.43Y-29.41
X17.272Y-54.102
X17.272Y-51.562
X17.272Y-49.022
X17.272Y-46.482
X17.272Y-43.942
X17.272Y-41.402
X17.272Y-38.862
X17.272Y-36.322
X17.272Y-33.782
X17.272Y-31.242
X17.272Y-28.702
X17.272Y-26.162
X17.272Y-23.622
X17.272Y-21.082
X18.288Y-12.7
X18.288Y-5.08
X20.828Y-12.7
X20.828Y-5.08
X23.368Y-12.7
X23.368Y-5.08
X24.892Y-54.102
X24.892Y-51.562
X24.892Y-49.022
X24.892Y-46.482
X24.892Y-43.942
X24.892Y-41.402
X24.892Y-38.862
X24.892Y-36.322
X24.892Y-33.782
X24.892Y-31.242
X24.892Y-28.702
X24.892Y-26.162
X24.892Y-23.622
X24.892Y-21.082
X25.908Y-12.7
X25.908Y-5.08
X28.448Y-12.7
X28.448Y-5.08
X32.258Y-52.832
X34.758Y-52.832
T3
X6.604Y-20.828
X6.604Y-18.288
X6.604Y-15.748
T4
X37.756Y-32.004
X37.756Y-29.804
X37.756Y-27.604
X41.656Y-32.004
X41.656Y-29.804
X41.656Y-27.604
T5
X20.828Y-67.818
X20.828Y-60.198
X23.368Y-60.198
X25.908Y-67.818
X25.908Y-60.198
X30.48Y-43.942
X30.48Y-41.402
X30.48Y-38.862
T3
X29.844Y-65.214G85X29.844Y-63.214
G05
X35.544Y-67.214G85X33.544Y-67.214
G05
X35.544Y-61.214G85X33.544Y-61.214
G05
T0
M30
