G04 #@! TF.FileFunction,Copper,L1,Top,Signal*
%FSLAX46Y46*%
G04 Gerber Fmt 4.6, Leading zero omitted, Abs format (unit mm)*
G04 Created by KiCad (PCBNEW 4.0.7) date 02/17/19 14:56:20*
%MOMM*%
%LPD*%
G01*
G04 APERTURE LIST*
%ADD10C,0.100000*%
%ADD11C,1.778000*%
%ADD12R,3.500000X3.500000*%
%ADD13O,3.010000X1.510000*%
%ADD14R,1.800000X1.800000*%
%ADD15C,1.800000*%
%ADD16O,2.540000X2.032000*%
%ADD17C,1.500000*%
%ADD18R,2.400000X1.600000*%
%ADD19O,2.400000X1.600000*%
%ADD20R,1.600000X1.600000*%
%ADD21O,1.600000X1.600000*%
%ADD22C,1.600000*%
%ADD23C,0.800000*%
G04 APERTURE END LIST*
D10*
D11*
X171196000Y-87630000D03*
X176276000Y-87630000D03*
X176276000Y-95250000D03*
X173736000Y-95250000D03*
X171196000Y-95250000D03*
D12*
X184912000Y-94234000D03*
X184912000Y-88234000D03*
X180212000Y-91234000D03*
D13*
X156972000Y-134620000D03*
X156972000Y-137160000D03*
X156972000Y-139700000D03*
D14*
X192024000Y-123444000D03*
D15*
X192024000Y-125644000D03*
X192024000Y-127844000D03*
X188124000Y-123444000D03*
X188124000Y-125644000D03*
X188124000Y-127844000D03*
D16*
X180848000Y-114046000D03*
X180848000Y-116586000D03*
X180848000Y-111506000D03*
D17*
X161798000Y-121158000D03*
X161798000Y-126038000D03*
D18*
X167640000Y-101346000D03*
D19*
X175260000Y-134366000D03*
X167640000Y-103886000D03*
X175260000Y-131826000D03*
X167640000Y-106426000D03*
X175260000Y-129286000D03*
X167640000Y-108966000D03*
X175260000Y-126746000D03*
X167640000Y-111506000D03*
X175260000Y-124206000D03*
X167640000Y-114046000D03*
X175260000Y-121666000D03*
X167640000Y-116586000D03*
X175260000Y-119126000D03*
X167640000Y-119126000D03*
X175260000Y-116586000D03*
X167640000Y-121666000D03*
X175260000Y-114046000D03*
X167640000Y-124206000D03*
X175260000Y-111506000D03*
X167640000Y-126746000D03*
X175260000Y-108966000D03*
X167640000Y-129286000D03*
X175260000Y-106426000D03*
X167640000Y-131826000D03*
X175260000Y-103886000D03*
X167640000Y-134366000D03*
X175260000Y-101346000D03*
D20*
X178816000Y-142748000D03*
D21*
X168656000Y-150368000D03*
X176276000Y-142748000D03*
X171196000Y-150368000D03*
X173736000Y-142748000D03*
X173736000Y-150368000D03*
X171196000Y-142748000D03*
X176276000Y-150368000D03*
X168656000Y-142748000D03*
X178816000Y-150368000D03*
D20*
X182626000Y-102616000D03*
D22*
X185126000Y-102616000D03*
X181864000Y-143510000D03*
X181864000Y-147066000D03*
X163068000Y-154178000D03*
X163068000Y-150368000D03*
X187960000Y-113538000D03*
X156972000Y-143256000D03*
X171958000Y-147574000D03*
X175768000Y-147574000D03*
X181864000Y-122936000D03*
X156972000Y-146304000D03*
X178562000Y-118872000D03*
X183642000Y-122936000D03*
D23*
X181864000Y-147066000D02*
X181864000Y-143510000D01*
X163068000Y-150368000D02*
X163068000Y-154178000D01*
X187960000Y-113538000D02*
X179832000Y-121666000D01*
X179832000Y-121666000D02*
X179832000Y-137414000D01*
X179832000Y-137414000D02*
X177800000Y-139446000D01*
X177800000Y-139446000D02*
X160782000Y-139446000D01*
X160782000Y-139446000D02*
X156972000Y-143256000D01*
X171958000Y-147574000D02*
X175768000Y-147574000D01*
X181864000Y-122936000D02*
X183642000Y-122936000D01*
X183642000Y-122936000D02*
X183642000Y-136144000D01*
X183642000Y-136144000D02*
X178816000Y-140970000D01*
X178816000Y-140970000D02*
X162306000Y-140970000D01*
X162306000Y-140970000D02*
X156972000Y-146304000D01*
X178562000Y-118872000D02*
X178562000Y-108966000D01*
X178562000Y-108966000D02*
X179324000Y-108204000D01*
X179324000Y-108204000D02*
X188468000Y-108204000D01*
X188468000Y-108204000D02*
X188976000Y-108712000D01*
X188976000Y-108712000D02*
X189992000Y-109728000D01*
X189992000Y-109728000D02*
X189992000Y-117856000D01*
X189992000Y-117856000D02*
X184912000Y-122936000D01*
X184912000Y-122936000D02*
X183642000Y-122936000D01*
M02*
