G04 #@! TF.FileFunction,Copper,L2,Bot,Signal*
%FSLAX46Y46*%
G04 Gerber Fmt 4.6, Leading zero omitted, Abs format (unit mm)*
G04 Created by KiCad (PCBNEW 4.0.7) date 02/17/19 14:56:21*
%MOMM*%
%LPD*%
G01*
G04 APERTURE LIST*
%ADD10C,0.100000*%
%ADD11C,0.450000*%
%ADD12C,1.778000*%
%ADD13R,2.000000X1.600000*%
%ADD14R,3.500000X3.500000*%
%ADD15O,3.010000X1.510000*%
%ADD16R,1.800000X1.800000*%
%ADD17C,1.800000*%
%ADD18R,2.000000X1.700000*%
%ADD19R,1.700000X2.000000*%
%ADD20O,2.540000X2.032000*%
%ADD21C,1.500000*%
%ADD22R,2.400000X1.600000*%
%ADD23O,2.400000X1.600000*%
%ADD24R,1.600000X1.600000*%
%ADD25O,1.600000X1.600000*%
%ADD26C,1.600000*%
%ADD27R,1.600000X2.000000*%
%ADD28C,0.800000*%
G04 APERTURE END LIST*
D10*
D11*
X154478952Y-85956571D02*
X151978952Y-85956571D01*
X153764667Y-86789904D01*
X151978952Y-87623238D01*
X154478952Y-87623238D01*
X153764667Y-88694666D02*
X153764667Y-89885143D01*
X154478952Y-88456571D02*
X151978952Y-89289905D01*
X154478952Y-90123238D01*
X154240857Y-92385143D02*
X154359905Y-92266095D01*
X154478952Y-91908952D01*
X154478952Y-91670857D01*
X154359905Y-91313714D01*
X154121810Y-91075619D01*
X153883714Y-90956571D01*
X153407524Y-90837523D01*
X153050381Y-90837523D01*
X152574190Y-90956571D01*
X152336095Y-91075619D01*
X152098000Y-91313714D01*
X151978952Y-91670857D01*
X151978952Y-91908952D01*
X152098000Y-92266095D01*
X152217048Y-92385143D01*
X154478952Y-94885143D02*
X153288476Y-94051809D01*
X154478952Y-93456571D02*
X151978952Y-93456571D01*
X151978952Y-94408952D01*
X152098000Y-94647047D01*
X152217048Y-94766095D01*
X152455143Y-94885143D01*
X152812286Y-94885143D01*
X153050381Y-94766095D01*
X153169429Y-94647047D01*
X153288476Y-94408952D01*
X153288476Y-93456571D01*
X151978952Y-96432762D02*
X151978952Y-96908952D01*
X152098000Y-97147047D01*
X152336095Y-97385143D01*
X152812286Y-97504190D01*
X153645619Y-97504190D01*
X154121810Y-97385143D01*
X154359905Y-97147047D01*
X154478952Y-96908952D01*
X154478952Y-96432762D01*
X154359905Y-96194666D01*
X154121810Y-95956571D01*
X153645619Y-95837523D01*
X152812286Y-95837523D01*
X152336095Y-95956571D01*
X152098000Y-96194666D01*
X151978952Y-96432762D01*
X154478952Y-101908953D02*
X153288476Y-101075619D01*
X154478952Y-100480381D02*
X151978952Y-100480381D01*
X151978952Y-101432762D01*
X152098000Y-101670857D01*
X152217048Y-101789905D01*
X152455143Y-101908953D01*
X152812286Y-101908953D01*
X153050381Y-101789905D01*
X153169429Y-101670857D01*
X153288476Y-101432762D01*
X153288476Y-100480381D01*
X154478952Y-102980381D02*
X151978952Y-102980381D01*
X154478952Y-104170857D02*
X151978952Y-104170857D01*
X154478952Y-105599429D01*
X151978952Y-105599429D01*
X152098000Y-108099429D02*
X151978952Y-107861334D01*
X151978952Y-107504191D01*
X152098000Y-107147048D01*
X152336095Y-106908953D01*
X152574190Y-106789905D01*
X153050381Y-106670857D01*
X153407524Y-106670857D01*
X153883714Y-106789905D01*
X154121810Y-106908953D01*
X154359905Y-107147048D01*
X154478952Y-107504191D01*
X154478952Y-107742286D01*
X154359905Y-108099429D01*
X154240857Y-108218477D01*
X153407524Y-108218477D01*
X153407524Y-107742286D01*
X158678952Y-84587523D02*
X156178952Y-84587523D01*
X158678952Y-86016095D02*
X157250381Y-84944666D01*
X156178952Y-86016095D02*
X157607524Y-84587523D01*
X156178952Y-87801809D02*
X157964667Y-87801809D01*
X158321810Y-87682761D01*
X158559905Y-87444666D01*
X158678952Y-87087523D01*
X158678952Y-86849428D01*
X157369429Y-88992285D02*
X157369429Y-89825618D01*
X158678952Y-90182761D02*
X158678952Y-88992285D01*
X156178952Y-88992285D01*
X156178952Y-90182761D01*
X158678952Y-92444666D02*
X158678952Y-91254190D01*
X156178952Y-91254190D01*
X158678952Y-94468476D02*
X158678952Y-93278000D01*
X156178952Y-93278000D01*
X158678952Y-97206572D02*
X156178952Y-97206572D01*
X156178952Y-97801810D01*
X156298000Y-98158953D01*
X156536095Y-98397048D01*
X156774190Y-98516096D01*
X157250381Y-98635144D01*
X157607524Y-98635144D01*
X158083714Y-98516096D01*
X158321810Y-98397048D01*
X158559905Y-98158953D01*
X158678952Y-97801810D01*
X158678952Y-97206572D01*
X157369429Y-99706572D02*
X157369429Y-100539905D01*
X158678952Y-100897048D02*
X158678952Y-99706572D01*
X156178952Y-99706572D01*
X156178952Y-100897048D01*
X158559905Y-101849429D02*
X158678952Y-102206572D01*
X158678952Y-102801810D01*
X158559905Y-103039906D01*
X158440857Y-103158953D01*
X158202762Y-103278001D01*
X157964667Y-103278001D01*
X157726571Y-103158953D01*
X157607524Y-103039906D01*
X157488476Y-102801810D01*
X157369429Y-102325620D01*
X157250381Y-102087525D01*
X157131333Y-101968477D01*
X156893238Y-101849429D01*
X156655143Y-101849429D01*
X156417048Y-101968477D01*
X156298000Y-102087525D01*
X156178952Y-102325620D01*
X156178952Y-102920858D01*
X156298000Y-103278001D01*
X158678952Y-104349429D02*
X156178952Y-104349429D01*
X156298000Y-106849429D02*
X156178952Y-106611334D01*
X156178952Y-106254191D01*
X156298000Y-105897048D01*
X156536095Y-105658953D01*
X156774190Y-105539905D01*
X157250381Y-105420857D01*
X157607524Y-105420857D01*
X158083714Y-105539905D01*
X158321810Y-105658953D01*
X158559905Y-105897048D01*
X158678952Y-106254191D01*
X158678952Y-106492286D01*
X158559905Y-106849429D01*
X158440857Y-106968477D01*
X157607524Y-106968477D01*
X157607524Y-106492286D01*
X158678952Y-108039905D02*
X156178952Y-108039905D01*
X158678952Y-109468477D01*
X156178952Y-109468477D01*
D12*
X171196000Y-87630000D03*
X176276000Y-87630000D03*
X176276000Y-95250000D03*
X173736000Y-95250000D03*
X171196000Y-95250000D03*
D13*
X154972000Y-121412000D03*
X158972000Y-121412000D03*
X154972000Y-126238000D03*
X158972000Y-126238000D03*
D14*
X184912000Y-94234000D03*
X184912000Y-88234000D03*
X180212000Y-91234000D03*
D15*
X156972000Y-134620000D03*
X156972000Y-137160000D03*
X156972000Y-139700000D03*
D16*
X192024000Y-123444000D03*
D17*
X192024000Y-125644000D03*
X192024000Y-127844000D03*
X188124000Y-123444000D03*
X188124000Y-125644000D03*
X188124000Y-127844000D03*
D18*
X163798000Y-113792000D03*
X159798000Y-113792000D03*
D19*
X161798000Y-132620000D03*
X161798000Y-136620000D03*
X164338000Y-132620000D03*
X164338000Y-136620000D03*
X170434000Y-131858000D03*
X170434000Y-135858000D03*
D18*
X179356000Y-135382000D03*
X183356000Y-135382000D03*
D19*
X172720000Y-135922000D03*
X172720000Y-139922000D03*
D18*
X179356000Y-130556000D03*
X183356000Y-130556000D03*
X188246000Y-116586000D03*
X192246000Y-116586000D03*
D20*
X180848000Y-114046000D03*
X180848000Y-116586000D03*
X180848000Y-111506000D03*
D21*
X161798000Y-121158000D03*
X161798000Y-126038000D03*
D22*
X167640000Y-101346000D03*
D23*
X175260000Y-134366000D03*
X167640000Y-103886000D03*
X175260000Y-131826000D03*
X167640000Y-106426000D03*
X175260000Y-129286000D03*
X167640000Y-108966000D03*
X175260000Y-126746000D03*
X167640000Y-111506000D03*
X175260000Y-124206000D03*
X167640000Y-114046000D03*
X175260000Y-121666000D03*
X167640000Y-116586000D03*
X175260000Y-119126000D03*
X167640000Y-119126000D03*
X175260000Y-116586000D03*
X167640000Y-121666000D03*
X175260000Y-114046000D03*
X167640000Y-124206000D03*
X175260000Y-111506000D03*
X167640000Y-126746000D03*
X175260000Y-108966000D03*
X167640000Y-129286000D03*
X175260000Y-106426000D03*
X167640000Y-131826000D03*
X175260000Y-103886000D03*
X167640000Y-134366000D03*
X175260000Y-101346000D03*
D24*
X178816000Y-142748000D03*
D25*
X168656000Y-150368000D03*
X176276000Y-142748000D03*
X171196000Y-150368000D03*
X173736000Y-142748000D03*
X173736000Y-150368000D03*
X171196000Y-142748000D03*
X176276000Y-150368000D03*
X168656000Y-142748000D03*
X178816000Y-150368000D03*
D24*
X182626000Y-102616000D03*
D26*
X185126000Y-102616000D03*
D27*
X154940000Y-146780000D03*
X154940000Y-142780000D03*
D26*
X181864000Y-143510000D03*
X181864000Y-147066000D03*
X163068000Y-154178000D03*
X163068000Y-150368000D03*
X187960000Y-113538000D03*
X156972000Y-143256000D03*
X171958000Y-147574000D03*
X175768000Y-147574000D03*
X181864000Y-122936000D03*
X156972000Y-146304000D03*
X178562000Y-118872000D03*
X183642000Y-122936000D03*
D28*
X176276000Y-87630000D02*
X176276000Y-87884000D01*
X176276000Y-87884000D02*
X173736000Y-90424000D01*
X173736000Y-90424000D02*
X173736000Y-95250000D01*
X184912000Y-88234000D02*
X183230000Y-88234000D01*
X183230000Y-88234000D02*
X182626000Y-87630000D01*
X182626000Y-87630000D02*
X176276000Y-87630000D01*
X161798000Y-150368000D02*
X163068000Y-150368000D01*
X181864000Y-143510000D02*
X181864000Y-142748000D01*
X181864000Y-151892000D02*
X181864000Y-147066000D01*
X179578000Y-154178000D02*
X181864000Y-151892000D01*
X165862000Y-154178000D02*
X179578000Y-154178000D01*
X163068000Y-154178000D02*
X165862000Y-154178000D01*
X188124000Y-127844000D02*
X181782000Y-127844000D01*
X181782000Y-127844000D02*
X181356000Y-128270000D01*
X181356000Y-128270000D02*
X181356000Y-132080000D01*
X181356000Y-132080000D02*
X182118000Y-132842000D01*
X182118000Y-132842000D02*
X185420000Y-132842000D01*
X185420000Y-132842000D02*
X185674000Y-133096000D01*
X185674000Y-133096000D02*
X185674000Y-140716000D01*
X185674000Y-140716000D02*
X183642000Y-142748000D01*
X183642000Y-142748000D02*
X181864000Y-142748000D01*
X181864000Y-142748000D02*
X178816000Y-142748000D01*
X168656000Y-150368000D02*
X161798000Y-150368000D01*
X158750000Y-143256000D02*
X156972000Y-143256000D01*
X159766000Y-144272000D02*
X158750000Y-143256000D01*
X159766000Y-148336000D02*
X159766000Y-144272000D01*
X161798000Y-150368000D02*
X159766000Y-148336000D01*
X179324000Y-114046000D02*
X179070000Y-114046000D01*
X179070000Y-114046000D02*
X178054000Y-113030000D01*
X169672000Y-119126000D02*
X169926000Y-119126000D01*
X169926000Y-119126000D02*
X172466000Y-116586000D01*
X172466000Y-116586000D02*
X175260000Y-116586000D01*
X187960000Y-111760000D02*
X185674000Y-114046000D01*
X185674000Y-114046000D02*
X185928000Y-114046000D01*
X187960000Y-112522000D02*
X187960000Y-113030000D01*
X187960000Y-113030000D02*
X187452000Y-112522000D01*
X187452000Y-112522000D02*
X187198000Y-112522000D01*
X186944000Y-114046000D02*
X186944000Y-112776000D01*
X186944000Y-112776000D02*
X187198000Y-112522000D01*
X187198000Y-112522000D02*
X187960000Y-112522000D01*
X154940000Y-142780000D02*
X154940000Y-142240000D01*
X154940000Y-142240000D02*
X156972000Y-140208000D01*
X156972000Y-140208000D02*
X156972000Y-139700000D01*
X156972000Y-143256000D02*
X155416000Y-143256000D01*
X155416000Y-143256000D02*
X154940000Y-142780000D01*
X156972000Y-143256000D02*
X156464000Y-143256000D01*
X156464000Y-143256000D02*
X155956000Y-143764000D01*
X155956000Y-143764000D02*
X155924000Y-143764000D01*
X155924000Y-143764000D02*
X154940000Y-142780000D01*
X154940000Y-142780000D02*
X155416000Y-142780000D01*
X155416000Y-142780000D02*
X156972000Y-141224000D01*
X156972000Y-141224000D02*
X156972000Y-141478000D01*
X154940000Y-142780000D02*
X155670000Y-142780000D01*
X155670000Y-142780000D02*
X156972000Y-141478000D01*
X156972000Y-141478000D02*
X156972000Y-141478000D01*
X154940000Y-142780000D02*
X156496000Y-142780000D01*
X156496000Y-142780000D02*
X156972000Y-143256000D01*
X167640000Y-119126000D02*
X169672000Y-119126000D01*
X180848000Y-114046000D02*
X186944000Y-114046000D01*
X186944000Y-114046000D02*
X187452000Y-114046000D01*
X187452000Y-114046000D02*
X187960000Y-113538000D01*
X156972000Y-143256000D02*
X156972000Y-141478000D01*
X156972000Y-141478000D02*
X156972000Y-139700000D01*
X185126000Y-102616000D02*
X187960000Y-102616000D01*
X187960000Y-102616000D02*
X187706000Y-102616000D01*
X187706000Y-102616000D02*
X187960000Y-102616000D01*
X187960000Y-113538000D02*
X187960000Y-112522000D01*
X187960000Y-112522000D02*
X187960000Y-111760000D01*
X187960000Y-111760000D02*
X187960000Y-102616000D01*
X187960000Y-102616000D02*
X187960000Y-91282000D01*
X187960000Y-91282000D02*
X184912000Y-88234000D01*
X184054000Y-87376000D02*
X184912000Y-88234000D01*
X185832000Y-114046000D02*
X187452000Y-114046000D01*
X187452000Y-114046000D02*
X187960000Y-113538000D01*
X178054000Y-114808000D02*
X178054000Y-113030000D01*
X185832000Y-114046000D02*
X185928000Y-114046000D01*
X175260000Y-116586000D02*
X176276000Y-116586000D01*
X176276000Y-116586000D02*
X178054000Y-114808000D01*
X178054000Y-114808000D02*
X178816000Y-114046000D01*
X178816000Y-114046000D02*
X179324000Y-114046000D01*
X179324000Y-114046000D02*
X180848000Y-114046000D01*
X185928000Y-114046000D02*
X180848000Y-114046000D01*
X154972000Y-121412000D02*
X154972000Y-121380000D01*
X154972000Y-121380000D02*
X157226000Y-119126000D01*
X157226000Y-119126000D02*
X167640000Y-119126000D01*
X154972000Y-126238000D02*
X154972000Y-121412000D01*
X161798000Y-121158000D02*
X159226000Y-121158000D01*
X159226000Y-121158000D02*
X158972000Y-121412000D01*
X167640000Y-121666000D02*
X162306000Y-121666000D01*
X162306000Y-121666000D02*
X161798000Y-121158000D01*
X161798000Y-126038000D02*
X159172000Y-126038000D01*
X159172000Y-126038000D02*
X158972000Y-126238000D01*
X167640000Y-124206000D02*
X163630000Y-124206000D01*
X163630000Y-124206000D02*
X161798000Y-126038000D01*
X167640000Y-134366000D02*
X166370000Y-134366000D01*
X166370000Y-134366000D02*
X166116000Y-134620000D01*
X166116000Y-134620000D02*
X156972000Y-134620000D01*
X175260000Y-126746000D02*
X175514000Y-126746000D01*
X175514000Y-126746000D02*
X181102000Y-121158000D01*
X181102000Y-121158000D02*
X189738000Y-121158000D01*
X189738000Y-121158000D02*
X192024000Y-123444000D01*
X171196000Y-87630000D02*
X171196000Y-86868000D01*
X171196000Y-86868000D02*
X173736000Y-84328000D01*
X173736000Y-84328000D02*
X188722000Y-84328000D01*
X188722000Y-84328000D02*
X190246000Y-85852000D01*
X190246000Y-85852000D02*
X190246000Y-119888000D01*
X190246000Y-119888000D02*
X190246000Y-119634000D01*
X190246000Y-119634000D02*
X190246000Y-119888000D01*
X175260000Y-124206000D02*
X176276000Y-124206000D01*
X176276000Y-124206000D02*
X180594000Y-119888000D01*
X180594000Y-119888000D02*
X190246000Y-119888000D01*
X190246000Y-119888000D02*
X192786000Y-119888000D01*
X192786000Y-119888000D02*
X194310000Y-121412000D01*
X194310000Y-121412000D02*
X194310000Y-124968000D01*
X194310000Y-124968000D02*
X193634000Y-125644000D01*
X193634000Y-125644000D02*
X192024000Y-125644000D01*
X167640000Y-101346000D02*
X167640000Y-99314000D01*
X192246000Y-85820000D02*
X192246000Y-116586000D01*
X188976000Y-82550000D02*
X192246000Y-85820000D01*
X170434000Y-82550000D02*
X188976000Y-82550000D01*
X165608000Y-87376000D02*
X170434000Y-82550000D01*
X165608000Y-97282000D02*
X165608000Y-87376000D01*
X167640000Y-99314000D02*
X165608000Y-97282000D01*
X192024000Y-127844000D02*
X193974000Y-127844000D01*
X195834000Y-120174000D02*
X192246000Y-116586000D01*
X195834000Y-125984000D02*
X195834000Y-120174000D01*
X193974000Y-127844000D02*
X195834000Y-125984000D01*
X179356000Y-130556000D02*
X178562000Y-130556000D01*
X178562000Y-130556000D02*
X177292000Y-129286000D01*
X177292000Y-129286000D02*
X175260000Y-129286000D01*
X188124000Y-125644000D02*
X186604000Y-125644000D01*
X186604000Y-125644000D02*
X185674000Y-124714000D01*
X185674000Y-124714000D02*
X181642000Y-124714000D01*
X181642000Y-124714000D02*
X179356000Y-127000000D01*
X175260000Y-129286000D02*
X176276000Y-129286000D01*
X176276000Y-129286000D02*
X178562000Y-127000000D01*
X178562000Y-127000000D02*
X179356000Y-127000000D01*
X163798000Y-113792000D02*
X167386000Y-113792000D01*
X167386000Y-113792000D02*
X167640000Y-114046000D01*
X178816000Y-150368000D02*
X178816000Y-151638000D01*
X154178000Y-113792000D02*
X159798000Y-113792000D01*
X151638000Y-116332000D02*
X154178000Y-113792000D01*
X151638000Y-150622000D02*
X151638000Y-116332000D01*
X153416000Y-152400000D02*
X151638000Y-150622000D01*
X178054000Y-152400000D02*
X153416000Y-152400000D01*
X178816000Y-151638000D02*
X178054000Y-152400000D01*
X167640000Y-126746000D02*
X165100000Y-126746000D01*
X165100000Y-126746000D02*
X161798000Y-130048000D01*
X161798000Y-130048000D02*
X161798000Y-132620000D01*
X161798000Y-136620000D02*
X161798000Y-144018000D01*
X161798000Y-144018000D02*
X165354000Y-147574000D01*
X165354000Y-147574000D02*
X171958000Y-147574000D01*
X175768000Y-147574000D02*
X176276000Y-148082000D01*
X176276000Y-148082000D02*
X176276000Y-150368000D01*
X167640000Y-129286000D02*
X165862000Y-129286000D01*
X165862000Y-129286000D02*
X164338000Y-130810000D01*
X164338000Y-130810000D02*
X164338000Y-132620000D01*
X164338000Y-136620000D02*
X164338000Y-142748000D01*
X173736000Y-146050000D02*
X173736000Y-150368000D01*
X172974000Y-145288000D02*
X173736000Y-146050000D01*
X166878000Y-145288000D02*
X172974000Y-145288000D01*
X164338000Y-142748000D02*
X166878000Y-145288000D01*
X170434000Y-131858000D02*
X167672000Y-131858000D01*
X167672000Y-131858000D02*
X167640000Y-131826000D01*
X170434000Y-135858000D02*
X170434000Y-136906000D01*
X168656000Y-138684000D02*
X168656000Y-142748000D01*
X170434000Y-136906000D02*
X168656000Y-138684000D01*
X175260000Y-134366000D02*
X175260000Y-134620000D01*
X175260000Y-134620000D02*
X176022000Y-135382000D01*
X176022000Y-135382000D02*
X179356000Y-135382000D01*
X171196000Y-142748000D02*
X171196000Y-142240000D01*
X171196000Y-142240000D02*
X170434000Y-141478000D01*
X170434000Y-141478000D02*
X170434000Y-139192000D01*
X170434000Y-139192000D02*
X171704000Y-137922000D01*
X171704000Y-137922000D02*
X182372000Y-137922000D01*
X182372000Y-137922000D02*
X183356000Y-136938000D01*
X183356000Y-136938000D02*
X183356000Y-135382000D01*
X172720000Y-135922000D02*
X172720000Y-132334000D01*
X173228000Y-131826000D02*
X175260000Y-131826000D01*
X172720000Y-132334000D02*
X173228000Y-131826000D01*
X172720000Y-139922000D02*
X175736000Y-139922000D01*
X176276000Y-140462000D02*
X176276000Y-142748000D01*
X175736000Y-139922000D02*
X176276000Y-140462000D01*
X183356000Y-130556000D02*
X185928000Y-130556000D01*
X173736000Y-144018000D02*
X173736000Y-142748000D01*
X175006000Y-145288000D02*
X173736000Y-144018000D01*
X185674000Y-145288000D02*
X175006000Y-145288000D01*
X187452000Y-143510000D02*
X185674000Y-145288000D01*
X187452000Y-132080000D02*
X187452000Y-143510000D01*
X185928000Y-130556000D02*
X187452000Y-132080000D01*
X173736000Y-142748000D02*
X173736000Y-143256000D01*
X167640000Y-108966000D02*
X169672000Y-108966000D01*
X171196000Y-107442000D02*
X171196000Y-95250000D01*
X169672000Y-108966000D02*
X171196000Y-107442000D01*
X167640000Y-108966000D02*
X168656000Y-108966000D01*
X176276000Y-95250000D02*
X176276000Y-96266000D01*
X171196000Y-111506000D02*
X167640000Y-111506000D01*
X172466000Y-110236000D02*
X171196000Y-111506000D01*
X172466000Y-100076000D02*
X172466000Y-110236000D01*
X176276000Y-96266000D02*
X172466000Y-100076000D01*
X182626000Y-102616000D02*
X180212000Y-102616000D01*
X180212000Y-102616000D02*
X180594000Y-102616000D01*
X180594000Y-102616000D02*
X180212000Y-102616000D01*
X180212000Y-91234000D02*
X180212000Y-102616000D01*
X180212000Y-102616000D02*
X180212000Y-110870000D01*
X180212000Y-110870000D02*
X180848000Y-111506000D01*
X188124000Y-123444000D02*
X182372000Y-123444000D01*
X182372000Y-123444000D02*
X181864000Y-122936000D01*
X181864000Y-122936000D02*
X187616000Y-122936000D01*
X187616000Y-122936000D02*
X187108000Y-122428000D01*
X187108000Y-122428000D02*
X182372000Y-122428000D01*
X182372000Y-122428000D02*
X181864000Y-122936000D01*
X153924000Y-147574000D02*
X153670000Y-147574000D01*
X153670000Y-147574000D02*
X152908000Y-146812000D01*
X152908000Y-146812000D02*
X152908000Y-145132595D01*
X156972000Y-146304000D02*
X156972000Y-146812000D01*
X156972000Y-146812000D02*
X156210000Y-147574000D01*
X156210000Y-147574000D02*
X153924000Y-147574000D01*
X183642000Y-122936000D02*
X181864000Y-122936000D01*
X156972000Y-146304000D02*
X154432000Y-146304000D01*
X154432000Y-146304000D02*
X153260595Y-145132595D01*
X153260595Y-145132595D02*
X152908000Y-145132595D01*
X152908000Y-144780000D02*
X152908000Y-145132595D01*
X152908000Y-145132595D02*
X152908000Y-145288000D01*
X152908000Y-145288000D02*
X153924000Y-146304000D01*
X156972000Y-146304000D02*
X156496000Y-146780000D01*
X156496000Y-146780000D02*
X154940000Y-146780000D01*
X154940000Y-146780000D02*
X154654000Y-147066000D01*
X154654000Y-147066000D02*
X153670000Y-147066000D01*
X153670000Y-147066000D02*
X152908000Y-146304000D01*
X152908000Y-146304000D02*
X152908000Y-144780000D01*
X152908000Y-144780000D02*
X152908000Y-144510002D01*
X156972000Y-137160000D02*
X152908000Y-137160000D01*
X152908000Y-137160000D02*
X153162000Y-137160000D01*
X153162000Y-137160000D02*
X152908000Y-137160000D01*
X154940000Y-146780000D02*
X156496000Y-146780000D01*
X156496000Y-146780000D02*
X156972000Y-146304000D01*
X156972000Y-146304000D02*
X153924000Y-146304000D01*
X153924000Y-146304000D02*
X152908000Y-144510002D01*
X152908000Y-144510002D02*
X152908000Y-137160000D01*
X152908000Y-137160000D02*
X152908000Y-118887998D01*
X152908000Y-118887998D02*
X155448000Y-116586000D01*
X155448000Y-116586000D02*
X167640000Y-116586000D01*
X175260000Y-121666000D02*
X175768000Y-121666000D01*
X175768000Y-121666000D02*
X178562000Y-118872000D01*
X183642000Y-122936000D02*
X185928000Y-122936000D01*
X185928000Y-122936000D02*
X187452000Y-122936000D01*
X187452000Y-122936000D02*
X187960000Y-123444000D01*
X187960000Y-123444000D02*
X188124000Y-123444000D01*
X175260000Y-121666000D02*
X175768000Y-121666000D01*
X175768000Y-121666000D02*
X180848000Y-116586000D01*
X188124000Y-123444000D02*
X187706000Y-123444000D01*
X180848000Y-117094000D02*
X180848000Y-116586000D01*
X180848000Y-116586000D02*
X180848000Y-117094000D01*
X176276000Y-121666000D02*
X175260000Y-121666000D01*
X180848000Y-116586000D02*
X188246000Y-116586000D01*
M02*
